<?xml version="1.0" encoding="utf-8"?>
<!-- Generator: Adobe Illustrator 19.0.0, SVG Export Plug-In . SVG Version: 6.00 Build 0)  -->
<svg version="1.1" id="Layer_1" xmlns="http://www.w3.org/2000/svg" xmlns:xlink="http://www.w3.org/1999/xlink" x="0px" y="0px"
	 viewBox="0 0 183 107.6" style="enable-background:new 0 0 183 107.6;" xml:space="preserve">
<style type="text/css">
	.st0{clip-path:url(#SVGID_4_);fill:url(#SVGID_5_);}
	.st1{clip-path:url(#SVGID_7_);fill:url(#SVGID_8_);}
	.st2{opacity:0.43;clip-path:url(#SVGID_10_);}
	.st3{clip-path:url(#SVGID_12_);}
	.st4{filter:url(#Adobe_OpacityMaskFilter);}
	.st5{clip-path:url(#SVGID_14_);fill:url(#SVGID_16_);}
	.st6{clip-path:url(#SVGID_14_);mask:url(#SVGID_15_);fill:url(#SVGID_17_);}
	.st7{clip-path:url(#SVGID_10_);fill:none;stroke:#FFFFFF;stroke-width:0.946;stroke-linecap:round;stroke-miterlimit:10;}
	.st8{clip-path:url(#SVGID_10_);fill:#FFFFFF;}
	.st9{clip-path:url(#SVGID_10_);fill:#AB5576;}
</style>
<g>
	<g>
		<defs>
			<rect id="SVGID_1_" x="-263.9" y="-286.9" width="593.4" height="407.6"/>
		</defs>
		<clipPath id="SVGID_2_">
			<use xlink:href="#SVGID_1_"  style="overflow:visible;"/>
		</clipPath>
	</g>
	<g>
		<defs>
			<path id="SVGID_3_" d="M4.9,87.8V18.4c0-7.7,6.2-13.9,13.9-13.9h146.4c7.7,0,13.9,6.3,13.9,13.9v69.4c0,7.7-6.3,13.9-13.9,13.9
				H18.8C11.2,101.7,4.9,95.4,4.9,87.8 M18.8,3.5C10.6,3.5,4,10.2,4,18.4v69.4c0,8.2,6.7,14.9,14.9,14.9h146.4
				c8.2,0,14.9-6.7,14.9-14.9V18.4c0-8.2-6.7-14.9-14.9-14.9H18.8z"/>
		</defs>
		<clipPath id="SVGID_4_">
			<use xlink:href="#SVGID_3_"  style="overflow:visible;"/>
		</clipPath>
		
			<linearGradient id="SVGID_5_" gradientUnits="userSpaceOnUse" x1="-1.4982" y1="409.2315" x2="-0.4982" y2="409.2315" gradientTransform="matrix(176.1702 0 0 -176.1702 267.8936 72147.4609)">
			<stop  offset="0" style="stop-color:#FF8779"/>
			<stop  offset="0.4414" style="stop-color:#E0596F"/>
			<stop  offset="1" style="stop-color:#B41962"/>
		</linearGradient>
		<rect x="4" y="3.5" class="st0" width="176.2" height="99.2"/>
	</g>
	<g>
		<defs>
			<path id="SVGID_6_" d="M18.8,6.8C12.5,6.8,7.3,12,7.3,18.4v69.4c0,6.4,5.2,11.6,11.6,11.6h146.4c6.4,0,11.6-5.2,11.6-11.6V18.4
				c0-6.4-5.2-11.6-11.6-11.6H18.8z"/>
		</defs>
		<clipPath id="SVGID_7_">
			<use xlink:href="#SVGID_6_"  style="overflow:visible;"/>
		</clipPath>
		
			<linearGradient id="SVGID_8_" gradientUnits="userSpaceOnUse" x1="-1.5568" y1="409.2953" x2="-0.5568" y2="409.2953" gradientTransform="matrix(169.5387 0 0 -169.5387 271.2095 69444.4531)">
			<stop  offset="0" style="stop-color:#FF8779"/>
			<stop  offset="0.4414" style="stop-color:#E0596F"/>
			<stop  offset="1" style="stop-color:#B41962"/>
		</linearGradient>
		<rect x="7.3" y="6.8" class="st1" width="169.5" height="92.5"/>
	</g>
	<g>
		<defs>
			<rect id="SVGID_9_" x="-263.9" y="-286.9" width="593.4" height="407.6"/>
		</defs>
		<clipPath id="SVGID_10_">
			<use xlink:href="#SVGID_9_"  style="overflow:visible;"/>
		</clipPath>
		<g class="st2">
			<g>
				<defs>
					<rect id="SVGID_11_" x="7.3" y="6.4" width="169.5" height="81.6"/>
				</defs>
				<clipPath id="SVGID_12_">
					<use xlink:href="#SVGID_11_"  style="overflow:visible;"/>
				</clipPath>
				<g class="st3">
					<defs>
						<path id="SVGID_13_" d="M165.3,6.4H18.8C12.5,6.4,7.3,11.6,7.3,18v69.4c0,0.2,0,0.4,0,0.6C8,71.9,21.2,57.9,37.4,57.9h109.2
							c16.2,0,29.5,14,30.1,30.1c0-0.2,0-0.4,0-0.6V18C176.8,11.6,171.6,6.4,165.3,6.4"/>
					</defs>
					<clipPath id="SVGID_14_">
						<use xlink:href="#SVGID_13_"  style="overflow:visible;"/>
					</clipPath>
					<defs>
						<filter id="Adobe_OpacityMaskFilter" filterUnits="userSpaceOnUse" x="7.3" y="6.4" width="169.5" height="81.6">
							<feColorMatrix  type="matrix" values="1 0 0 0 0  0 1 0 0 0  0 0 1 0 0  0 0 0 1 0"/>
						</filter>
					</defs>
					<mask maskUnits="userSpaceOnUse" x="7.3" y="6.4" width="169.5" height="81.6" id="SVGID_15_">
						<g class="st4">
							
								<linearGradient id="SVGID_16_" gradientUnits="userSpaceOnUse" x1="-1.5568" y1="409.2953" x2="-0.5568" y2="409.2953" gradientTransform="matrix(169.5387 0 0 -169.5387 271.2095 69438.5859)">
								<stop  offset="0" style="stop-color:#FFFFFF"/>
								<stop  offset="8.738401e-002" style="stop-color:#FFFFFF"/>
								<stop  offset="0.1753" style="stop-color:#EFEFEF"/>
								<stop  offset="0.3466" style="stop-color:#C6C6C6"/>
								<stop  offset="0.5844" style="stop-color:#838383"/>
								<stop  offset="0.8766" style="stop-color:#282828"/>
								<stop  offset="1" style="stop-color:#000000"/>
							</linearGradient>
							<rect x="7.3" y="6.4" class="st5" width="169.5" height="81.6"/>
						</g>
					</mask>
					
						<linearGradient id="SVGID_17_" gradientUnits="userSpaceOnUse" x1="-1.5568" y1="409.2953" x2="-0.5568" y2="409.2953" gradientTransform="matrix(169.5387 0 0 -169.5387 271.2095 69438.5938)">
						<stop  offset="0" style="stop-color:#F56F56"/>
						<stop  offset="8.738401e-002" style="stop-color:#F56F56"/>
						<stop  offset="0.2046" style="stop-color:#E56C63"/>
						<stop  offset="0.4327" style="stop-color:#BC6586"/>
						<stop  offset="0.7461" style="stop-color:#7A59BE"/>
						<stop  offset="1" style="stop-color:#404EEF"/>
					</linearGradient>
					<rect x="7.3" y="6.4" class="st6" width="169.5" height="81.6"/>
				</g>
			</g>
		</g>
		<path class="st7" d="M143.6,56.5l5.2-5.4c0.4-0.4,0.4-1.2,0-1.6l-5.2-5.4"/>
		<path class="st7" d="M149.8,56.5l5.2-5.4c0.4-0.4,0.4-1.2,0-1.6l-5.2-5.4"/>
		<path class="st8" d="M45.4,40.5c-1.1,0-1.9-0.3-2.5-0.9c-0.6-0.6-0.9-1.5-0.9-2.5V20.5c0-1,0.3-1.9,0.9-2.5
			c0.4-0.4,1.2-0.9,2.5-0.9h7c1.6,0,3.1,0.3,4.2,0.8c1.3,0.5,2.3,1.3,3,2.4c0.7,1,1.1,2.3,1.1,3.7c0,1.6-0.5,3-1.4,4.1
			c-0.1,0.1-0.2,0.2-0.3,0.3c0.2,0.2,0.5,0.4,0.7,0.6c1.1,1.2,1.6,2.6,1.6,4.4c0,2.3-0.8,4.1-2.4,5.4c-1.5,1.2-3.5,1.8-6.1,1.8H45.4
			z M52.2,34.7c1.3,0,1.8-0.3,2-0.4c0.1-0.1,0.4-0.3,0.4-1.2c0-0.9-0.3-1.1-0.4-1.2c-0.2-0.2-0.7-0.4-2-0.4h-3.7v3.2H52.2z
			 M51.7,25.7c1.2,0,1.7-0.3,1.9-0.4c0.1-0.1,0.4-0.3,0.4-1c0-0.7-0.3-0.9-0.4-1c-0.2-0.2-0.7-0.4-1.9-0.4h-3.2v2.9H51.7z"/>
		<path class="st9" d="M52.3,18.5c1.4,0,2.7,0.2,3.7,0.6c1,0.4,1.8,1,2.3,1.8c0.5,0.8,0.8,1.7,0.8,2.9c0,1.2-0.4,2.3-1.1,3.1
			c-0.5,0.6-1.2,1.1-2.1,1.5c1,0.3,1.9,0.8,2.5,1.5c0.8,0.9,1.2,2,1.2,3.4c0,1.8-0.6,3.2-1.8,4.2c-1.2,1-2.9,1.5-5.1,1.5h-7.3
			c-0.6,0-1.1-0.2-1.5-0.5c-0.3-0.3-0.5-0.8-0.5-1.5V20.5c0-0.6,0.2-1.1,0.5-1.5c0.3-0.3,0.8-0.5,1.5-0.5H52.3z M47,27.2h4.7
			c1.3,0,2.2-0.2,2.9-0.7c0.6-0.5,0.9-1.2,0.9-2.2c0-1-0.3-1.7-0.9-2.2c-0.6-0.5-1.6-0.7-2.9-0.7H47V27.2 M47,36.2h5.2
			c1.3,0,2.3-0.3,2.9-0.8c0.6-0.5,0.9-1.3,0.9-2.3c0-1-0.3-1.8-0.9-2.3c-0.6-0.5-1.6-0.8-2.9-0.8H47V36.2 M52.3,15.5h-7
			c-1.8,0-3,0.8-3.6,1.4c-0.6,0.6-1.4,1.8-1.4,3.6V37c0,1.8,0.8,3,1.4,3.6c0.6,0.6,1.8,1.4,3.6,1.4h7.3c2.9,0,5.3-0.7,7-2.2
			c1.9-1.6,3-3.8,3-6.6c0-2-0.6-3.8-1.7-5.1c0.8-1.2,1.2-2.7,1.2-4.3c0-1.7-0.4-3.2-1.3-4.5c-0.9-1.3-2.1-2.3-3.6-2.9
			C55.8,15.8,54.2,15.5,52.3,15.5 M50,33h2.2c0.4,0,0.7,0,0.8,0.1c0,0,0,0,0,0c0,0,0,0,0,0c-0.2,0-0.4,0.1-0.8,0.1H50V33z"/>
		<path class="st8" d="M80.3,40.7c-0.9,0-1.7-0.3-2.3-0.8c-0.5-0.4-0.9-1-1.2-1.7l-1.1-2.5h-8l-1,2.5c-0.4,0.8-0.7,1.3-1.1,1.7
			c-0.6,0.5-1.3,0.8-2.2,0.8c-0.8,0-1.5-0.2-2-0.6c-0.6-0.4-1-1.1-1.1-1.8c-0.1-0.6,0-1.3,0.3-2l7.7-17c0.4-0.8,0.9-1.4,1.4-1.8
			c0.6-0.4,1.3-0.6,2.1-0.6c0.7,0,1.4,0.2,2,0.6c0.6,0.4,1.1,1,1.4,1.8l7.7,17c0.3,0.7,0.5,1.4,0.3,2.1c-0.1,0.8-0.5,1.4-1.1,1.8
			C81.8,40.5,81.1,40.7,80.3,40.7 M73.3,29.8l-1.5-3.5l-1.5,3.5H73.3z"/>
		<path class="st9" d="M71.9,18.3c0.4,0,0.8,0.1,1.2,0.4c0.4,0.2,0.7,0.6,0.9,1.2l7.7,17c0.2,0.4,0.3,0.9,0.2,1.2
			c-0.1,0.4-0.2,0.7-0.5,0.9c-0.3,0.2-0.6,0.3-1.1,0.3c-0.5,0-1-0.1-1.3-0.4c-0.3-0.3-0.6-0.7-0.8-1.2l-1.5-3.4h-10l-1.4,3.4
			c-0.3,0.6-0.5,1-0.8,1.2c-0.3,0.3-0.7,0.4-1.2,0.4c-0.5,0-0.8-0.1-1.1-0.3s-0.4-0.5-0.5-0.9c-0.1-0.4,0-0.8,0.2-1.2l7.7-17
			c0.3-0.6,0.6-1,0.9-1.2C71,18.4,71.4,18.3,71.9,18.3 M68.1,31.3h7.4l-3.7-8.8h-0.1L68.1,31.3 M71.9,15.3c-1.1,0-2.1,0.3-2.9,0.9
			c-0.8,0.6-1.5,1.4-2,2.5l-7.7,17c-0.4,1-0.6,2-0.4,2.9c0.2,1.1,0.8,2.1,1.7,2.8c0.6,0.4,1.5,0.9,2.9,0.9c1.6,0,2.6-0.6,3.2-1.2
			c0.6-0.5,1.1-1.3,1.5-2.2l0,0l0,0l0.7-1.5h6l0.7,1.6c0.4,1,0.9,1.7,1.6,2.3c0.6,0.5,1.6,1.1,3.2,1.1c1.4,0,2.3-0.5,2.9-0.9
			c0.9-0.7,1.5-1.7,1.7-2.8c0.2-1,0-2-0.5-3l-7.7-17c-0.5-1.1-1.1-1.9-2-2.5C73.9,15.6,72.9,15.3,71.9,15.3"/>
		<path class="st8" d="M94,40.8c-2.4,0-4.5-0.5-6.2-1.5c-1.8-1-3.1-2.4-4.1-4.3c-0.9-1.8-1.4-3.9-1.4-6.3c0-1.8,0.3-3.4,0.8-4.9
			c0.5-1.5,1.3-2.8,2.3-3.8c1-1.1,2.3-1.9,3.8-2.5c1.4-0.6,3.1-0.8,4.8-0.8c1.2,0,2.4,0.2,3.5,0.5c1.2,0.3,2.2,0.8,3.1,1.4
			c0.7,0.4,1.1,1,1.4,1.6c0.2,0.6,0.3,1.3,0.1,1.9c-0.1,0.6-0.4,1.2-0.9,1.6c-0.5,0.5-1.1,0.8-1.8,0.8c-0.1,0-0.2,0-0.2,0
			c-0.6,0-1.2-0.2-1.9-0.6c-0.5-0.3-1-0.5-1.5-0.7c-0.6-0.1-1.2-0.2-1.8-0.2c-1.1,0-2,0.2-2.7,0.6c-0.7,0.4-1.2,1-1.5,1.8
			c-0.4,0.9-0.6,2-0.6,3.3c0,1.3,0.2,2.4,0.6,3.3c0.4,0.8,0.9,1.4,1.5,1.8c0.7,0.4,1.6,0.6,2.7,0.6c0.6,0,1.2-0.1,1.8-0.2
			c0.6-0.1,1.1-0.4,1.6-0.7c0.6-0.4,1.2-0.6,1.8-0.6c0.1,0,0.2,0,0.2,0c0.7,0.1,1.3,0.3,1.7,0.8c0.5,0.4,0.8,0.9,0.9,1.6
			c0.1,0.6,0.1,1.2-0.1,1.8c-0.2,0.6-0.6,1.2-1.2,1.6c-0.9,0.7-2,1.2-3.3,1.5C96.5,40.6,95.2,40.8,94,40.8"/>
		<path class="st9" d="M94,18.2c1.1,0,2.1,0.1,3.1,0.4c1,0.3,1.9,0.7,2.7,1.2c0.4,0.3,0.7,0.6,0.8,0.9c0.1,0.4,0.2,0.7,0.1,1
			c-0.1,0.3-0.2,0.6-0.5,0.9c-0.2,0.2-0.5,0.4-0.9,0.4c0,0-0.1,0-0.1,0c-0.3,0-0.7-0.1-1.1-0.4c-0.6-0.4-1.3-0.7-1.9-0.8
			c-0.7-0.2-1.4-0.3-2.1-0.3c-1.4,0-2.5,0.3-3.5,0.8c-1,0.6-1.7,1.4-2.2,2.4c-0.5,1.1-0.7,2.4-0.7,3.9c0,1.5,0.2,2.8,0.7,3.9
			c0.5,1.1,1.2,1.9,2.2,2.5c0.9,0.6,2.1,0.8,3.5,0.8c0.7,0,1.5-0.1,2.2-0.3c0.7-0.2,1.4-0.5,2-0.9c0.4-0.2,0.7-0.3,1-0.3
			c0,0,0.1,0,0.1,0c0.3,0,0.6,0.2,0.9,0.4c0.2,0.2,0.4,0.5,0.5,0.8c0.1,0.3,0.1,0.6-0.1,1c-0.1,0.3-0.3,0.6-0.7,0.9
			c-0.8,0.6-1.7,1-2.8,1.3c-1.1,0.3-2.2,0.5-3.3,0.5c-2.1,0-4-0.4-5.5-1.3c-1.5-0.9-2.7-2.1-3.5-3.7c-0.8-1.6-1.2-3.4-1.2-5.6
			c0-1.6,0.2-3.1,0.7-4.3c0.5-1.3,1.1-2.4,2-3.3c0.9-0.9,1.9-1.6,3.2-2.1C91,18.5,92.4,18.2,94,18.2 M94,15.2c-2,0-3.8,0.3-5.4,0.9
			c-1.7,0.7-3.1,1.6-4.3,2.9c-1.2,1.2-2,2.7-2.7,4.4c-0.6,1.6-0.9,3.4-0.9,5.4c0,2.6,0.5,5,1.6,7c1.1,2.1,2.7,3.8,4.7,4.9
			c2,1.1,4.3,1.7,7,1.7c1.4,0,2.7-0.2,4.1-0.6c1.4-0.4,2.7-1,3.7-1.8c0.8-0.6,1.5-1.4,1.8-2.3c0.3-0.9,0.3-1.8,0.1-2.7
			c-0.2-0.9-0.7-1.7-1.4-2.3c-0.7-0.7-1.6-1.1-2.6-1.1c-0.1,0-0.2,0-0.4,0c-0.9,0-1.7,0.3-2.6,0.8c-0.4,0.3-0.8,0.4-1.3,0.5
			c-0.5,0.1-1,0.2-1.4,0.2c-0.8,0-1.5-0.1-2-0.4c-0.4-0.2-0.7-0.6-0.9-1.1c-0.3-0.7-0.5-1.6-0.5-2.7c0-1.1,0.2-2,0.5-2.7
			c0.2-0.5,0.5-0.9,1-1.1c0.5-0.3,1.1-0.4,2-0.4c0.5,0,0.9,0.1,1.4,0.2c0.4,0.1,0.7,0.2,1.1,0.5c0.9,0.6,1.8,0.8,2.7,0.8
			c0.1,0,0.2,0,0.3,0c1-0.1,2-0.5,2.7-1.2c0.7-0.6,1.1-1.5,1.3-2.4c0.2-0.9,0.1-1.9-0.2-2.8c-0.4-1-1.1-1.8-2-2.4
			c-1-0.7-2.2-1.2-3.5-1.5C96.6,15.4,95.3,15.2,94,15.2"/>
		<path class="st8" d="M118.7,40.7c-0.8,0-1.4-0.2-2-0.6c-0.4-0.2-0.7-0.6-1.2-1l-6.1-6.1v4.2c0,1-0.3,1.8-0.9,2.4
			c-0.4,0.5-1.2,1-2.5,1c-1.3,0-2-0.5-2.5-1c-0.6-0.6-0.9-1.4-0.9-2.4V20.2c0-1,0.3-1.9,0.9-2.5c0.4-0.4,1.2-0.9,2.4-0.9
			c1.3,0,2,0.5,2.4,0.9c0.6,0.6,0.9,1.4,0.9,2.5V24l5.8-5.9c0.4-0.4,0.9-0.8,1.3-1c0.5-0.3,1.1-0.4,1.7-0.4c1.3,0,2,0.5,2.4,1
			c0.5,0.6,0.7,1.4,0.6,2.2c-0.1,0.7-0.4,1.4-1,2l-6.6,6.5l7,7.1c0.8,0.8,1,1.6,1.1,2.2c0,0.9-0.3,1.6-0.8,2.2
			C120.6,40.3,119.9,40.7,118.7,40.7"/>
		<path class="st9" d="M118.3,18.3c0.6,0,1,0.1,1.2,0.4c0.2,0.3,0.3,0.6,0.3,1c0,0.4-0.2,0.7-0.6,1.1l-7.6,7.6l8,8.2
			c0.4,0.4,0.6,0.8,0.6,1.2c0,0.4-0.1,0.8-0.4,1.1c-0.3,0.3-0.7,0.4-1.2,0.4c-0.5,0-0.8-0.1-1.1-0.3c-0.3-0.2-0.6-0.5-1-0.8
			l-8.6-8.6H108v7.8c0,0.6-0.2,1.1-0.5,1.4c-0.3,0.3-0.8,0.5-1.4,0.5c-0.6,0-1.1-0.2-1.4-0.5c-0.3-0.3-0.5-0.8-0.5-1.4V20.2
			c0-0.6,0.2-1.1,0.5-1.4c0.3-0.3,0.8-0.5,1.4-0.5c0.6,0,1.1,0.2,1.4,0.5c0.3,0.3,0.5,0.8,0.5,1.4v7.4h0.1l8.3-8.4
			c0.3-0.3,0.6-0.5,0.9-0.7C117.6,18.4,117.9,18.3,118.3,18.3 M118.3,15.3c-0.9,0-1.7,0.2-2.4,0.6c-0.6,0.3-1.2,0.7-1.7,1.3
			l-3.3,3.3v-0.2c0-1.8-0.7-2.9-1.4-3.5c-0.6-0.6-1.7-1.4-3.5-1.4c-1.8,0-2.9,0.7-3.5,1.4c-0.6,0.6-1.4,1.7-1.4,3.5v17.2
			c0,1.7,0.7,2.8,1.3,3.5c0.6,0.7,1.8,1.4,3.6,1.4c1.9,0,3-0.8,3.6-1.5c0.6-0.6,1.3-1.7,1.3-3.4v-0.6l3.5,3.5c0.5,0.5,1,0.9,1.4,1.2
			c0.8,0.5,1.7,0.8,2.8,0.8c1.7,0,2.8-0.7,3.4-1.3c0.9-0.9,1.3-2.1,1.3-3.3c0-0.8-0.3-2.1-1.5-3.2l-5.9-6l5.5-5.5
			c0.8-0.8,1.3-1.8,1.4-2.8c0.1-1.2-0.2-2.4-1-3.3C121.3,16.1,120.2,15.3,118.3,15.3"/>
		<path class="st8" d="M70.5,65c-1.3,0-2-0.5-2.5-1c-0.4-0.4-0.9-1.2-0.9-2.4V47.4h-4.2c-1.1,0-1.8-0.5-2.2-0.9
			c-0.4-0.4-0.9-1.1-0.9-2.2c0-1.2,0.5-1.9,0.9-2.2c0.4-0.4,1.1-0.8,2.2-0.8H78c1.1,0,1.8,0.4,2.2,0.8c0.4,0.4,0.9,1.1,0.9,2.2
			c0,1.1-0.5,1.8-0.9,2.2c-0.4,0.4-1.1,0.9-2.2,0.9h-4.2v14.2c0,1-0.3,1.8-0.9,2.4C72.5,64.4,71.8,65,70.5,65"/>
		<path class="st9" d="M78,42.7c0.5,0,0.9,0.1,1.2,0.4c0.3,0.3,0.4,0.6,0.4,1.1c0,0.5-0.1,0.9-0.4,1.1c-0.3,0.3-0.7,0.4-1.2,0.4
			h-5.7v15.7c0,0.6-0.2,1.1-0.5,1.4c-0.3,0.3-0.8,0.5-1.4,0.5c-0.6,0-1.1-0.2-1.4-0.5c-0.3-0.3-0.5-0.8-0.5-1.4V45.9h-5.7
			c-0.5,0-0.9-0.1-1.2-0.4c-0.3-0.3-0.4-0.7-0.4-1.1c0-0.5,0.1-0.9,0.4-1.1c0.3-0.3,0.7-0.4,1.2-0.4H78z M78,39.7H62.9
			c-1.6,0-2.6,0.7-3.2,1.2c-0.6,0.6-1.4,1.6-1.4,3.3c0,1.6,0.7,2.7,1.3,3.3c0.6,0.6,1.6,1.3,3.3,1.3h2.7v12.7c0,1.7,0.7,2.8,1.3,3.5
			c0.6,0.7,1.7,1.4,3.6,1.4c1.9,0,3-0.8,3.6-1.5c0.6-0.6,1.3-1.7,1.3-3.4V48.9H78c1.7,0,2.7-0.7,3.3-1.3c0.6-0.6,1.3-1.6,1.3-3.3
			c0-1.7-0.7-2.8-1.4-3.3C80.6,40.4,79.6,39.7,78,39.7"/>
		<path class="st8" d="M89.7,65c-2.2,0-4.2-0.5-6-1.5c-1.7-1-3.1-2.5-4-4.3c-0.9-1.8-1.4-3.9-1.4-6.3c0-1.8,0.3-3.4,0.8-4.9
			c0.5-1.5,1.3-2.8,2.3-3.8c1-1.1,2.2-1.9,3.6-2.5c1.4-0.6,2.9-0.9,4.6-0.9c2.3,0,4.3,0.5,6,1.5c1.7,1,3.1,2.4,4,4.3
			c0.9,1.8,1.4,3.9,1.4,6.2c0,1.8-0.3,3.4-0.8,4.9c-0.5,1.5-1.3,2.8-2.3,3.9c-1,1.1-2.2,1.9-3.6,2.5C92.9,64.8,91.3,65,89.7,65
			 M89.7,47.2c-1,0-1.7,0.2-2.4,0.6c-0.6,0.4-1.1,1-1.5,1.8c-0.4,0.9-0.6,2-0.6,3.4c0,1.9,0.4,3.4,1.2,4.5c0.8,0.9,1.8,1.4,3.2,1.4
			c1,0,1.8-0.2,2.4-0.6c0.6-0.4,1.1-1,1.5-1.9c0.4-0.9,0.6-2,0.6-3.4c0-2-0.4-3.5-1.2-4.5C92.2,47.6,91.1,47.2,89.7,47.2"/>
		<path class="st9" d="M89.7,42.5c2,0,3.7,0.4,5.2,1.3c1.5,0.9,2.6,2.1,3.4,3.7c0.8,1.6,1.2,3.4,1.2,5.6c0,1.6-0.2,3.1-0.7,4.4
			c-0.5,1.3-1.1,2.4-2,3.3c-0.9,0.9-1.9,1.6-3.1,2.1c-1.2,0.5-2.6,0.7-4.1,0.7c-2,0-3.7-0.4-5.2-1.3c-1.5-0.9-2.6-2.1-3.4-3.7
			c-0.8-1.6-1.2-3.4-1.2-5.6c0-1.6,0.2-3.1,0.7-4.3c0.5-1.3,1.1-2.4,2-3.3c0.9-0.9,1.9-1.6,3.1-2.1C86.8,42.7,88.2,42.5,89.7,42.5
			 M89.7,60.3c1.3,0,2.3-0.3,3.2-0.9c0.9-0.6,1.6-1.4,2-2.5c0.5-1.1,0.7-2.4,0.7-4c0-2.3-0.5-4.1-1.6-5.4c-1-1.3-2.5-1.9-4.4-1.9
			c-1.2,0-2.3,0.3-3.2,0.9c-0.9,0.6-1.6,1.4-2.1,2.5c-0.5,1.1-0.7,2.4-0.7,4c0,2.3,0.5,4.1,1.6,5.4C86.3,59.7,87.8,60.3,89.7,60.3
			 M89.7,39.5c-1.9,0-3.6,0.3-5.2,1c-1.6,0.7-3,1.6-4.2,2.8c-1.1,1.2-2,2.7-2.6,4.3c-0.6,1.6-0.9,3.4-0.9,5.4c0,2.6,0.5,4.9,1.6,6.9
			c1.1,2.1,2.6,3.7,4.6,4.9c1.9,1.1,4.2,1.7,6.7,1.7c1.9,0,3.6-0.3,5.2-1c1.6-0.7,3-1.6,4.2-2.9c1.1-1.2,2-2.7,2.6-4.4
			c0.6-1.6,0.9-3.4,0.9-5.4c0-2.6-0.5-4.9-1.6-6.9c-1.1-2.1-2.6-3.7-4.6-4.9C94.4,40,92.2,39.5,89.7,39.5 M89.7,57.3
			c-1.2,0-1.7-0.4-2.1-0.8c-0.6-0.7-0.9-1.9-0.9-3.5c0-1.1,0.2-2.1,0.5-2.8c0.2-0.5,0.5-0.9,0.9-1.2c0.4-0.3,0.9-0.4,1.6-0.4
			c1.3,0,1.8,0.4,2.1,0.8c0.6,0.7,0.9,1.9,0.9,3.5c0,1.1-0.2,2-0.5,2.8c-0.2,0.6-0.5,1-0.9,1.2C90.8,57.2,90.3,57.3,89.7,57.3"/>
		<path class="st8" d="M46,89.2c-0.8,0-1.6-0.2-2.2-0.6c-0.6-0.4-1-1-1.3-1.7l-7.6-17c-0.4-0.8-0.4-1.6-0.3-2.3
			c0.2-0.7,0.6-1.3,1.2-1.7c0.6-0.4,1.2-0.6,2-0.6c0.9,0,1.7,0.2,2.2,0.7c0.5,0.4,0.8,1,1.1,1.7L46,78.9l4.9-11.3
			c0.3-0.7,0.7-1.2,1.2-1.6c0.6-0.5,1.3-0.7,2.2-0.7c0.8,0,1.4,0.2,2,0.6c0.6,0.4,0.9,1,1.1,1.8c0.1,0.7,0,1.4-0.3,2.2l-7.6,17.1
			c-0.3,0.7-0.7,1.3-1.3,1.7C47.6,89,46.9,89.2,46,89.2"/>
		<path class="st9" d="M54.3,66.8c0.4,0,0.8,0.1,1.1,0.3c0.3,0.2,0.5,0.5,0.5,0.9c0.1,0.4,0,0.8-0.2,1.3l-7.6,17
			c-0.2,0.5-0.5,0.8-0.8,1.1c-0.3,0.2-0.8,0.4-1.3,0.4c-0.5,0-1-0.1-1.3-0.4c-0.3-0.2-0.6-0.6-0.8-1.1l-7.6-17
			c-0.2-0.5-0.3-0.9-0.2-1.3c0.1-0.4,0.3-0.7,0.6-0.9s0.7-0.3,1.1-0.3c0.6,0,1,0.1,1.3,0.4c0.3,0.2,0.5,0.6,0.7,1.1L46,82.7
			l6.2-14.5c0.2-0.5,0.5-0.8,0.8-1.1C53.3,66.9,53.7,66.8,54.3,66.8 M54.3,63.8c-1.5,0-2.6,0.6-3.1,1.1c-0.6,0.5-1.2,1.2-1.6,2.1
			l0,0l0,0L46,75.1l-3.5-8.1c-0.4-0.9-0.9-1.7-1.5-2.2c-0.8-0.7-1.9-1.1-3.2-1.1c-1,0-2,0.3-2.8,0.8c-0.9,0.6-1.5,1.5-1.8,2.6
			c-0.3,1-0.2,2.1,0.3,3.3l7.6,17.1c0.4,1,1,1.8,1.8,2.3c0.9,0.6,1.9,0.9,3,0.9c1.2,0,2.3-0.3,3.1-1c0.7-0.6,1.3-1.3,1.7-2.3l7.6-17
			c0.5-1.1,0.6-2.1,0.4-3.1c-0.2-1.1-0.8-2-1.7-2.6C56.3,64.1,55.3,63.8,54.3,63.8"/>
		<path class="st8" d="M60.4,89.2c-1.3,0-2-0.5-2.5-1c-0.4-0.4-0.9-1.2-0.9-2.4V68.7c0-1,0.3-1.9,0.9-2.5c0.4-0.4,1.2-1,2.5-1
			s2,0.5,2.5,1c0.6,0.6,0.9,1.4,0.9,2.5v17.1c0,1-0.3,1.8-0.9,2.4C62.5,88.7,61.7,89.2,60.4,89.2"/>
		<path class="st9" d="M60.4,66.8c0.6,0,1.1,0.2,1.4,0.5c0.3,0.3,0.5,0.8,0.5,1.4v17.1c0,0.6-0.2,1.1-0.5,1.4
			c-0.3,0.3-0.8,0.5-1.4,0.5c-0.6,0-1.1-0.2-1.4-0.5c-0.3-0.3-0.5-0.8-0.5-1.4V68.7c0-0.6,0.2-1.1,0.5-1.4
			C59.4,66.9,59.8,66.8,60.4,66.8 M60.4,63.8c-1.8,0-2.9,0.8-3.5,1.4c-0.6,0.6-1.3,1.7-1.3,3.5v17.1c0,1.7,0.7,2.8,1.3,3.5
			c0.6,0.7,1.8,1.4,3.6,1.4c1.9,0,3-0.8,3.6-1.5c0.6-0.6,1.3-1.7,1.3-3.4V68.7c0-1.8-0.7-2.9-1.3-3.5C63.3,64.5,62.2,63.8,60.4,63.8
			"/>
		<path class="st8" d="M68.8,89c-1.1,0-1.9-0.3-2.5-0.9c-0.4-0.4-0.9-1.2-0.9-2.5V69c0-1.3,0.5-2.1,1-2.5c0.6-0.6,1.5-0.9,2.5-0.9
			h5.6c3.8,0,6.8,1,9,3.1c2.2,2.1,3.3,5,3.3,8.7c0,1.8-0.3,3.5-0.8,4.9c-0.6,1.5-1.4,2.8-2.5,3.8c-1.1,1-2.4,1.8-3.9,2.3
			C78,88.7,76.3,89,74.4,89H68.8z M74.2,82.9c1,0,1.9-0.1,2.6-0.4c0.7-0.2,1.2-0.5,1.6-1c0.4-0.4,0.7-1,1-1.6
			c0.2-0.7,0.4-1.7,0.4-2.7c0-2-0.4-3.4-1.3-4.3c-0.9-0.9-2.3-1.3-4.3-1.3H72v11.3H74.2z"/>
		<path class="st9" d="M74.4,67c3.4,0,6.1,0.9,8,2.6c1.9,1.8,2.8,4.3,2.8,7.6c0,1.6-0.2,3.1-0.7,4.4c-0.5,1.3-1.2,2.3-2.1,3.2
			c-0.9,0.9-2,1.5-3.4,2c-1.3,0.5-2.9,0.7-4.6,0.7h-5.6c-0.6,0-1.1-0.2-1.5-0.5c-0.3-0.3-0.5-0.8-0.5-1.5V69c0-0.6,0.2-1.1,0.5-1.5
			c0.3-0.3,0.8-0.5,1.5-0.5H74.4z M70.5,84.4h3.7c1.2,0,2.2-0.2,3.1-0.5c0.9-0.3,1.6-0.7,2.2-1.3c0.6-0.6,1-1.3,1.3-2.2
			c0.3-0.9,0.4-2,0.4-3.2c0-2.4-0.6-4.2-1.8-5.4c-1.2-1.2-3-1.8-5.3-1.8h-3.7V84.4 M74.4,64h-5.6c-1.8,0-3,0.8-3.6,1.4
			c-0.6,0.6-1.4,1.8-1.4,3.6v16.6c0,1.8,0.8,3,1.4,3.6c0.6,0.6,1.8,1.4,3.6,1.4h5.6c2,0,3.9-0.3,5.6-0.8c1.7-0.6,3.2-1.5,4.5-2.7
			c1.3-1.2,2.2-2.6,2.8-4.3c0.6-1.6,0.9-3.4,0.9-5.4c0-4.1-1.3-7.4-3.7-9.8C82,65.2,78.6,64,74.4,64 M73.5,73.1h0.7
			c1.5,0,2.6,0.3,3.2,0.9c0.7,0.7,0.9,2.2,0.9,3.3c0,0.9-0.1,1.6-0.3,2.2c-0.1,0.4-0.3,0.8-0.6,1c-0.3,0.3-0.6,0.5-1.1,0.6
			c-0.6,0.2-1.3,0.3-2.2,0.3h-0.7V73.1z"/>
		<path class="st8" d="M90.9,89c-1.1,0-1.9-0.3-2.5-0.9c-0.6-0.6-0.9-1.5-0.9-2.5V69c0-1.1,0.3-1.9,0.9-2.5c0.4-0.4,1.2-0.9,2.5-0.9
			h10.4c1.1,0,1.8,0.4,2.2,0.8c0.4,0.4,0.9,1.1,0.9,2.2c0,1.1-0.5,1.8-0.8,2.2c-0.4,0.4-1.1,0.8-2.2,0.8H94v2.6h6.6
			c1.1,0,1.8,0.4,2.2,0.8c0.4,0.4,0.8,1.1,0.8,2.2c0,1.1-0.4,1.8-0.8,2.2c-0.5,0.5-1.3,0.8-2.2,0.8H94v3h7.3c1.1,0,1.8,0.4,2.2,0.8
			c0.4,0.4,0.9,1.1,0.9,2.2c0,1.1-0.5,1.8-0.9,2.2c-0.4,0.4-1.1,0.8-2.2,0.8H90.9z"/>
		<path class="st9" d="M101.3,67c0.5,0,0.9,0.1,1.1,0.4c0.3,0.3,0.4,0.6,0.4,1.1c0,0.5-0.1,0.9-0.4,1.1s-0.6,0.4-1.1,0.4h-8.8v5.6
			h8.1c0.5,0,0.9,0.1,1.1,0.4c0.3,0.3,0.4,0.6,0.4,1.1s-0.1,0.9-0.4,1.1c-0.3,0.3-0.6,0.4-1.1,0.4h-8.1v6h8.8c0.5,0,0.9,0.1,1.1,0.4
			c0.3,0.3,0.4,0.6,0.4,1.1s-0.1,0.9-0.4,1.1c-0.3,0.3-0.6,0.4-1.1,0.4H90.9c-0.6,0-1.1-0.2-1.5-0.5c-0.3-0.3-0.5-0.8-0.5-1.5V69
			c0-0.6,0.2-1.1,0.5-1.5s0.8-0.5,1.5-0.5H101.3z M101.3,64H90.9c-1.8,0-3,0.8-3.6,1.4c-0.6,0.6-1.4,1.8-1.4,3.6v16.6
			c0,1.8,0.8,3,1.4,3.6c0.6,0.6,1.8,1.4,3.6,1.4h10.4c1.6,0,2.6-0.7,3.2-1.2c0.6-0.6,1.3-1.6,1.3-3.3c0-1.7-0.7-2.7-1.3-3.3
			c-0.6-0.6-1.6-1.2-3.2-1.2c1.3-0.1,2.1-0.7,2.6-1.2c0.6-0.6,1.3-1.6,1.3-3.2c0-1.6-0.7-2.7-1.3-3.2c-0.4-0.4-0.9-0.7-1.6-1
			c1.1-0.2,1.8-0.7,2.2-1.2c0.6-0.6,1.3-1.6,1.3-3.2c0-1.6-0.7-2.7-1.3-3.2C103.9,64.6,102.9,64,101.3,64"/>
		<path class="st8" d="M115.5,89.3c-2.2,0-4.2-0.5-6-1.5c-1.7-1-3.1-2.5-4-4.3c-0.9-1.8-1.4-3.9-1.4-6.3c0-1.8,0.3-3.4,0.8-4.9
			c0.5-1.5,1.3-2.8,2.3-3.8c1-1.1,2.2-1.9,3.6-2.5c1.4-0.6,2.9-0.9,4.6-0.9c2.3,0,4.3,0.5,6,1.5c1.7,1,3.1,2.4,4,4.3
			c0.9,1.8,1.4,3.9,1.4,6.2c0,1.8-0.3,3.4-0.8,4.9c-0.5,1.5-1.3,2.8-2.3,3.9c-1,1.1-2.2,1.9-3.6,2.5C118.7,89,117.2,89.3,115.5,89.3
			 M115.5,71.4c-1,0-1.7,0.2-2.4,0.6c-0.6,0.4-1.1,1-1.5,1.8c-0.4,0.9-0.6,2-0.6,3.4c0,1.9,0.4,3.4,1.2,4.5c0.8,0.9,1.8,1.4,3.2,1.4
			c1,0,1.8-0.2,2.4-0.6c0.6-0.4,1.1-1,1.5-1.9c0.4-0.9,0.6-2,0.6-3.4c0-2-0.4-3.5-1.2-4.5C118,71.8,116.9,71.4,115.5,71.4"/>
		<path class="st9" d="M115.5,66.7c2,0,3.7,0.4,5.2,1.3c1.5,0.9,2.6,2.1,3.4,3.6c0.8,1.6,1.2,3.4,1.2,5.6c0,1.6-0.2,3.1-0.7,4.4
			c-0.5,1.3-1.1,2.4-2,3.3c-0.9,0.9-1.9,1.6-3.1,2.1c-1.2,0.5-2.6,0.7-4.1,0.7c-2,0-3.7-0.4-5.2-1.3c-1.5-0.9-2.6-2.1-3.4-3.7
			c-0.8-1.6-1.2-3.4-1.2-5.6c0-1.6,0.2-3.1,0.7-4.3c0.5-1.3,1.1-2.4,2-3.3c0.9-0.9,1.9-1.6,3.1-2.1C112.6,66.9,114,66.7,115.5,66.7
			 M115.5,84.6c1.3,0,2.3-0.3,3.2-0.9c0.9-0.6,1.6-1.4,2-2.5c0.5-1.1,0.7-2.4,0.7-4c0-2.3-0.5-4.1-1.6-5.4c-1-1.3-2.5-1.9-4.4-1.9
			c-1.2,0-2.3,0.3-3.2,0.9c-0.9,0.6-1.6,1.4-2.1,2.5c-0.5,1.1-0.7,2.4-0.7,4c0,2.3,0.5,4.1,1.6,5.4
			C112.1,83.9,113.6,84.6,115.5,84.6 M115.5,63.7c-1.9,0-3.6,0.3-5.2,1c-1.6,0.7-3,1.6-4.2,2.8c-1.1,1.2-2,2.7-2.6,4.3
			c-0.6,1.6-0.9,3.4-0.9,5.4c0,2.6,0.5,4.9,1.6,6.9c1.1,2.1,2.6,3.7,4.6,4.9c1.9,1.1,4.2,1.7,6.7,1.7c1.9,0,3.6-0.3,5.2-1
			c1.6-0.7,3-1.6,4.2-2.9c1.1-1.2,2-2.7,2.6-4.4c0.6-1.6,0.9-3.4,0.9-5.4c0-2.6-0.5-4.9-1.6-6.9c-1.1-2.1-2.6-3.7-4.6-4.9
			C120.3,64.3,118,63.7,115.5,63.7 M115.5,81.6c-1.2,0-1.7-0.4-2.1-0.8c-0.6-0.7-0.9-1.9-0.9-3.5c0-1.1,0.2-2.1,0.5-2.8
			c0.2-0.5,0.5-0.9,0.9-1.2c0.4-0.3,0.9-0.4,1.6-0.4c1.3,0,1.8,0.4,2.1,0.8c0.6,0.7,0.9,1.9,0.9,3.5c0,1.1-0.2,2-0.5,2.8
			c-0.2,0.6-0.5,1-0.9,1.2C116.7,81.5,116.1,81.6,115.5,81.6"/>
	</g>
</g>
</svg>
