<?xml version="1.0" encoding="utf-8"?>
<!-- Generator: Adobe Illustrator 19.0.0, SVG Export Plug-In . SVG Version: 6.00 Build 0)  -->
<svg version="1.1" id="Layer_1" xmlns="http://www.w3.org/2000/svg" xmlns:xlink="http://www.w3.org/1999/xlink" x="0px" y="0px"
	 viewBox="0 0 854.6 167.6" style="enable-background:new 0 0 854.6 167.6;" xml:space="preserve">
<style type="text/css">
	.st0{clip-path:url(#SVGID_2_);fill:url(#SVGID_3_);}
	.st1{clip-path:url(#SVGID_5_);fill:#9E0918;}
	.st2{fill:#FFFFFF;}
</style>
<g>
	<defs>
		<path id="SVGID_1_" d="M124.8,41.6c-13,0-23.5,10.5-23.5,23.5v40.6c0,13,10.5,23.5,23.5,23.5h616.8c13,0,23.5-10.5,23.5-23.5V65.1
			c0-13-10.5-23.5-23.5-23.5H124.8z"/>
	</defs>
	<clipPath id="SVGID_2_">
		<use xlink:href="#SVGID_1_"  style="overflow:visible;"/>
	</clipPath>
	
		<linearGradient id="SVGID_3_" gradientUnits="userSpaceOnUse" x1="0" y1="167.603" x2="1" y2="167.603" gradientTransform="matrix(0 -84.6909 -84.6909 0 14627.6641 130.6559)">
		<stop  offset="0" style="stop-color:#C41425"/>
		<stop  offset="1.658560e-007" style="stop-color:#C41425"/>
		<stop  offset="1" style="stop-color:#ED1B2F"/>
		<stop  offset="1" style="stop-color:#ED1B2F"/>
	</linearGradient>
	<rect x="101.3" y="41.6" class="st0" width="663.7" height="87.6"/>
</g>
<g>
	<defs>
		<rect id="SVGID_4_" width="854.6" height="167.6"/>
	</defs>
	<clipPath id="SVGID_5_">
		<use xlink:href="#SVGID_4_"  style="overflow:visible;"/>
	</clipPath>
	<path class="st1" d="M741.6,130.6H124.8c-13.7,0-24.9-11.2-24.9-24.9V65.1c0-13.7,11.2-24.9,24.9-24.9h616.8
		c13.7,0,24.9,11.2,24.9,24.9v40.6C766.5,119.4,755.3,130.6,741.6,130.6 M124.8,43c-12.2,0-22.1,9.9-22.1,22.1v40.6
		c0,12.2,9.9,22.1,22.1,22.1h616.8c12.2,0,22.1-9.9,22.1-22.1V65.1c0-12.2-9.9-22.1-22.1-22.1H124.8z"/>
</g>
<path class="st2" d="M190.9,84.3c0,0.3,0,0.7,0,1c0,2.3-1,4.2-3.5,4.2c-2.3,0-3.9-1.6-3.9-4.2c0-1.7,0.6-3.1,1.6-4.1
	c-2.5-2.9-4.3-3.8-4.3-3.8h-8.6c-1.5,0-2.3-0.9-2.3-2.3V75c0-1.4,0.9-2.3,2.3-2.3h36.7c1.4,0,2.3,0.9,2.3,2.3V75
	c0,1.5-0.9,2.3-2.3,2.3h-2.3v21.9c0,1.8-1,2.9-2.9,2.9h-0.1c-1.8,0-2.9-1.1-2.9-2.9v-0.6l-4.5-3.9c-1.9,2.6-5,4.1-9,4.1
	c-9.6,0-13.3-7.9-13.3-15.5c0-1.8,0.8-3.1,2.7-3.1c1.4,0,2.8,0.6,2.8,2.6c0,7.5,3.1,10.7,7.8,10.7c3.5,0,5.4-2.3,5.4-5.6
	C192.5,86.1,191.9,84.9,190.9,84.3z M200.6,92.1V77.4h-12.5c0.4,0.6,0.8,1.3,1.2,1.9c0.2,0,0.4,0,0.6,0c5,0,8.1,3.8,8.1,8.7
	c0,0.6,0,1.1-0.1,1.7L200.6,92.1z M217.6,88.3H217c0.3,0.6,0.5,1.2,0.5,1.9c0,2-1.4,3.3-3.5,3.3c-2.2,0-3.8-1.4-3.8-4
	c0-3.5,2.7-6.2,7.3-6.2c3.9,0,7.6,1.6,10,5.2l0.2-0.1c-0.3-1.7-0.7-4.4-0.7-8.3v-2.6h-18.2c-1.5,0-2.3-0.9-2.3-2.3V75
	c0-1.4,0.9-2.3,2.3-2.3h26.6c1.4,0,2.3,0.9,2.3,2.3V75c0,1.5-0.9,2.3-2.3,2.3h-2.4v21.8c0,1.8-1,2.9-2.7,2.9s-2.6-1-3.2-2.9
	C225.2,91.8,221.8,88.3,217.6,88.3z M239.8,110.3c0,1.4-1,2.7-2.6,2.7c-1.3,0-2-0.7-2.8-1.9c-0.6-1-1.3-2-2.2-3
	c-1,3.3-3.2,5.7-7.4,5.7c-4,0-7.5-2.6-7.5-6.9c0-5,3.9-7.5,8.1-7.5c0.8,0,1.7,0,2.7,0.3v-3.8c0-1.6,0.7-2.6,2.4-2.6h0.1
	c1.7,0,2.4,1,2.4,2.6v5.1v1c1.7,1.3,3.6,3.2,5.7,6C239.4,108.8,239.8,109.4,239.8,110.3z M228,104.8c-0.7-0.3-1.5-0.4-2.3-0.4
	c-1.8,0-2.9,0.9-2.9,2.6c0,1.3,0.9,2.2,2.2,2.2C226.9,109.1,227.7,107.3,228,104.8z M255.2,71.1c0-1.7,1-2.7,2.7-2.7h0.1
	c1.7,0,2.8,1,2.8,2.7v1.6h2.4c1.4,0,2.3,0.9,2.3,2.3V75c0,1.5-0.9,2.3-2.3,2.3h-2.4v21.4c0,1.8-0.7,2.9-2.6,2.9c-4,0-1.6-3.8-6-3.8
	c-2.3,0-3.4,0.7-6.5,0.7c-3.7,0-7.7-1.6-8.6-6.7c-0.3-2.2,1.1-3.3,2.7-3.3c1.2,0,2.3,0.3,2.8,2c0.7,2.2,1.6,2.8,3.7,2.8
	c2.1,0,3.4-0.7,5.4-0.7c1.2,0,2.3,0.3,3.4,1.5v-9.6c0-5.1-2.2-7.3-6.1-7.3c-1.5,0-2.6,0.3-3.5,0.9l0.1,0.2c0.2,0,0.3,0,0.5,0
	c3.6,0,5.6,2.2,5.6,5.6c0,1.7-0.3,3.5-1.8,5.5c-0.5,0.7-1.3,1.3-2.5,1.3c-1.6,0-2.9-1-2.9-2.6c0-0.7,0.4-1.3,1-2.1
	c0.6-0.8,0.8-1.3,0.8-2.1c0-1-0.6-1.5-1.6-1.5c-1.3,0-1.7,0.5-2.9,0.5c-1.9,0-3.1-1.3-3.1-3.2c0-1.3,0.6-2.6,1.3-3.5
	c1.6-2.5,4.7-4,8.3-4c2.9,0,5.1,0.7,6.7,2.2V71.1z M285.2,75c0,1.5-0.9,2.3-2.3,2.3h-12.1c0.4,0.6,0.8,1.3,1.2,2
	c0.5-0.1,1-0.1,1.6-0.1c5.3,0,8.9,3.2,8.9,8.3c0,4.2-2,7.7-7.6,8.5v0.2c0,0,1.6,0.3,3.9,1.6l1.6,0.9c1.2,0.6,1.9,1.2,1.9,2.5
	c0,1.4-1,2.6-2.4,2.6c-0.8,0-1.5-0.3-2.3-0.6L267,97.9c-1-0.5-1.6-1.3-1.6-2.6c0-1.7,1-3,2.8-3c0.9,0,1.3,0.2,3.4,0.2
	c2.7,0,5.1-1.1,5.1-4.8c0-2.2-1.2-3.4-3.3-3.5c0,0.4,0.1,0.8,0.1,1.2c0,2.3-1,4.2-3.6,4.2c-2.5,0-3.9-1.6-3.9-4.1
	c0-1.7,0.6-3.1,1.7-4.1c-1.4-1.8-2.8-3.3-3.4-3.9h-1c-1.5,0-2.3-0.9-2.3-2.3V75c0-1.4,0.9-2.3,2.3-2.3H283
	C284.4,72.7,285.2,73.5,285.2,75L285.2,75z M314.2,102.1c-1.9,0-3-1.1-3-3v-0.4L300,91.9c-1.3-0.8-1.9-1.9-1.9-3.5
	c0-1.6,0.7-2.8,1.8-3.6c3.9-2.9,7.7-4.4,11.4-5.1v-2.4h-14.9c-1.5,0-2.3-0.9-2.3-2.3V75c0-1.4,0.9-2.3,2.3-2.3h32.4
	c1.4,0,2.3,0.9,2.3,2.3V75c0,1.5-0.9,2.3-2.3,2.3h-11.5v2c5.9,0.4,10.9,3.9,10.9,10.2c0,4.2-2.2,6.7-5.3,6.7c-2.1,0-3.8-1.2-3.8-3.6
	c0-2.2,1.4-3.5,3.4-3.5c0.2,0,0.5,0,0.7,0.1c-0.2-2.3-2.6-4.4-5.8-4.8v14.6C317.3,101,316.2,102.1,314.2,102.1L314.2,102.1z
	 M304.3,88.4l7,4.3v-7.6C308.9,85.7,306.6,86.8,304.3,88.4z M344.6,97.9c0,2.2-1.6,3.8-4.2,3.8c-4.9,0-9.3-4.6-9.3-12.9
	c0-5,1.7-9.1,3.6-11.4h-6c-1.5,0-2.3-0.9-2.3-2.3V75c0-1.4,0.9-2.3,2.3-2.3h16c1.4,0,2.3,0.9,2.3,2.3V75c0,1.5-0.9,2.3-2.3,2.3h-1.3
	c-3.5,0.3-6.7,5.2-6.7,11.4c0,3.5,0.6,5.7,1.9,6.7c0.6-0.7,1.6-1.2,2.6-1.2C343.5,94.3,344.6,96.1,344.6,97.9z M366.4,72.7
	c1.4,0,2.3,0.9,2.3,2.3V75c0,1.5-0.9,2.3-2.3,2.3H364v21.9c0,1.8-0.9,2.8-2.8,2.8h-0.1c-1.8,0-2.8-1-2.8-2.8v-0.7l-12.1-6.7
	c-1.3-0.7-1.7-1.8-1.7-3.3c0-1.6,0.4-2.8,1.6-3.6c5.9-4.2,12.2-5.8,12.3-5.8v-1.7h-15.8c-1.5,0-2.3-0.9-2.3-2.3V75
	c0-1.4,0.9-2.3,2.3-2.3H366.4z M349.2,97.3c2.1,0,3.4,1.5,3.4,3.4s-1.3,3.3-3.4,3.3s-3.3-1.5-3.3-3.3S347.1,97.3,349.2,97.3z
	 M350.9,88.3l7.4,4.1v-7.8C356.3,85.3,353.4,86.8,350.9,88.3z M398.6,84.3c0,0.3,0,0.7,0,1c0,2.3-1,4.2-3.5,4.2
	c-2.3,0-3.9-1.6-3.9-4.2c0-1.7,0.6-3.1,1.6-4.1c-2.5-2.9-4.3-3.8-4.3-3.8h-8.6c-1.5,0-2.3-0.9-2.3-2.3V75c0-1.4,0.9-2.3,2.3-2.3
	h37.6h0.2h0.1c2.2,0,2.9,1.3,3.8,3.5l0.2-0.1c0,0-0.9-2.1-0.9-4.4V71c0-1.6,1-2.6,2.7-2.6h0.1c1.7,0,2.7,1,2.7,2.6v1.7h2.4
	c1.4,0,2.4,0.9,2.4,2.3V75c0,1.5-1,2.3-2.4,2.3h-2.4v21.7c0,1.9-1.1,3-3,3h-0.1c-1.9,0-3-1.1-3-3V80.8c0-2.1-0.7-3.4-2.6-3.4h-3.6
	v21.9c0,1.8-1,2.9-2.9,2.9h-0.1c-1.8,0-2.9-1.1-2.9-2.9v-0.6l-4.5-3.9c-1.9,2.6-5,4.1-9,4.1c-9.6,0-13.3-7.9-13.3-15.5
	c0-1.8,0.8-3.1,2.7-3.1c1.4,0,2.8,0.6,2.8,2.6c0,7.5,3.1,10.7,7.8,10.7c3.5,0,5.4-2.3,5.4-5.6C400.2,86.1,399.5,84.9,398.6,84.3z
	 M405.6,89.7l2.7,2.4V77.4h-12.5c0.4,0.6,0.8,1.3,1.2,1.9c0.2,0,0.4,0,0.6,0c5,0,8.1,3.8,8.1,8.7C405.7,88.6,405.7,89.1,405.6,89.7z
	 M452.6,72.7c1.4,0,2.3,0.9,2.3,2.3V75c0,1.5-0.9,2.3-2.3,2.3h-2.4v21.9c0,1.8-1,2.8-2.8,2.8h-0.1c-1.8,0-2.8-1-2.8-2.8v-0.7
	l-11.7-6.5c-1.3-0.7-2.1-1.9-2.1-3.5c0-1.8,0.7-3.1,1.9-3.9c5.9-4,11.9-5.5,11.9-5.5v-1.7h-15.8c-1.5,0-2.3-0.9-2.3-2.3V75
	c0-1.4,0.9-2.3,2.3-2.3H452.6z M437,88.3l7.5,4.1v-7.8C442.5,85.3,439.5,86.8,437,88.3z M453.7,72.7c2.2,0,2.9,1.3,3.8,3.5l0.2-0.1
	c0,0-0.9-2.1-0.9-4.4V71c0-1.6,1-2.6,2.7-2.6h0.1c1.7,0,2.7,1,2.7,2.6v1.7h2.4c1.4,0,2.4,0.9,2.4,2.3V75c0,1.5-1,2.3-2.4,2.3h-2.4
	v21.7c0,1.9-1.1,3-3,3h-0.1c-1.9,0-3-1.1-3-3V80.8c0-2.1-0.7-3.4-2.6-3.4h-1.1c-1.4,0-2.4-0.9-2.4-2.3V75c0-1.4,1-2.3,2.4-2.3H453.7
	z M488.5,72.7c1.4,0,2.3,0.9,2.3,2.3V75c0,1.5-0.9,2.3-2.3,2.3h-2.4v21.9c0,1.8-0.9,2.8-2.8,2.8h-0.1c-1.8,0-2.8-1-2.8-2.8v-0.7
	l-12.1-6.7c-1.3-0.7-1.7-1.8-1.7-3.3c0-1.6,0.4-2.8,1.6-3.6c5.9-4.2,12.2-5.8,12.3-5.8v-1.7h-15.8c-1.5,0-2.3-0.9-2.3-2.3V75
	c0-1.4,0.9-2.3,2.3-2.3H488.5z M471.3,97.3c2.1,0,3.4,1.5,3.4,3.4s-1.3,3.3-3.4,3.3s-3.3-1.5-3.3-3.3S469.2,97.3,471.3,97.3z
	 M473,88.3l7.4,4.1v-7.8C478.4,85.3,475.5,86.8,473,88.3z M517.8,97.9c0,2.2-1.6,3.8-4.2,3.8c-4.9,0-9.3-4.6-9.3-13
	c0-10,5-16,11.5-16h2.1c1.4,0,2.3,0.9,2.3,2.3V75c0,1.5-0.9,2.3-2.3,2.3h-0.5c-4.7,0.2-7.5,4.7-7.5,11.3c0,3.5,0.6,5.7,1.9,6.7
	c0.6-0.7,1.6-1.1,2.6-1.1C516.6,94.3,517.8,96.1,517.8,97.9z M540.9,75c0,1.5-0.9,2.3-2.3,2.3h-13.1c0,1.5,0.4,2.8,2.7,3.5l4,1.3
	c5.1,1.7,6,3.5,6,6.7c0,6-4.6,12.3-11.8,12.3c-3.7,0-6.5-1.5-6.5-5.4V77.4h-3.7c-1.5,0-2.3-0.9-2.3-2.3V75c0-1.4,0.9-2.3,2.3-2.3
	h22.4C540,72.7,540.9,73.5,540.9,75L540.9,75z M528.3,86.3c-1.3-0.4-2.1-0.9-2.6-1.3v9.5c0,1.1,0.4,1.5,1.3,1.5
	c2.7,0,5.5-3.8,5.5-6.7c0-1.1-0.3-1.8-1.6-2.2L528.3,86.3z M565.4,75c0,1.5-0.9,2.3-2.3,2.3h-2.7c0.6,1.2,0.9,2.6,0.9,4.2
	c0,3-1.1,5.2-2.8,6.6c-3.7,3.2-11.9,3.2-11.9,8.1c0,2.6,2.4,3.6,5.6,3.6c2.4,0,4-0.6,4.7-1.7c-0.3,0.1-0.5,0.1-0.8,0.1
	c-1.7,0-3.3-0.8-3.3-3c0-2.2,1.9-3.5,4.1-3.5c3.2,0,5.3,2.4,5.3,5.6c0,4-2.7,7.7-10.1,7.7c-7.2,0-11.4-3.5-11.4-8.8
	c0-3.5,1.9-5.8,4.5-7.4c-2.3-1.4-3.8-3.8-3.8-7.4c0-1.6,0.3-3,0.9-4.1h-3.7c-1.5,0-2.3-0.9-2.3-2.3V75c0-1.4,0.9-2.3,2.3-2.3h17.2
	c0.1-0.6,0.1-1.3,0.1-1.7c0-1.9-1.1-2.7-3.1-2.7c-2,0-2.8,0.3-5.4,0.3c-4.6,0-6.9-2.1-6.9-5.8c0-1.9,1-3,2.9-3
	c1.6,0,2.8,0.7,2.9,2.5c0.1,1.1,0.4,1.6,2.4,1.6c2.6,0,3.7-0.3,5.8-0.3c4.3,0,6.8,2.7,6.8,7c0,0.5-0.1,1.5-0.2,2.2h1.9
	C564.5,72.7,565.4,73.5,565.4,75L565.4,75z M551.3,86c1,0,1.9-0.2,2.7-0.7l-7-4.4c0,0.2,0,0.5,0,0.7C546.9,84.6,548.8,86,551.3,86z
	 M548.4,78.2l7.3,4.5c0.1-0.3,0.1-0.7,0.1-1.2c0-2.9-1.9-4.3-4.5-4.3C550.1,77.3,549.1,77.6,548.4,78.2z M564.2,72.7
	c2.2,0,2.9,1.3,3.8,3.5l0.2-0.1c0,0-0.9-2.1-0.9-4.4V71c0-1.6,1-2.6,2.7-2.6h0.1c1.7,0,2.7,1,2.7,2.6v1.7h2.4c1.4,0,2.4,0.9,2.4,2.3
	V75c0,1.5-1,2.3-2.4,2.3h-2.4v21.7c0,1.9-1.1,3-3,3h-0.1c-1.9,0-3-1.1-3-3V80.8c0-2.1-0.7-3.4-2.6-3.4h-1.1c-1.4,0-2.4-0.9-2.4-2.3
	V75c0-1.4,1-2.3,2.4-2.3H564.2z M606.5,102.1c-1.9,0-3-1.1-3-3v-0.4l-11.2-6.9c-1.3-0.8-1.9-1.9-1.9-3.5c0-1.6,0.7-2.8,1.8-3.6
	c3.9-2.9,7.7-4.4,11.4-5.1v-2.4h-14.9c-1.5,0-2.3-0.9-2.3-2.3V75c0-1.4,0.9-2.3,2.3-2.3H621c1.4,0,2.3,0.9,2.3,2.3V75
	c0,1.5-0.9,2.3-2.3,2.3h-11.5v2c5.9,0.4,10.9,3.9,10.9,10.2c0,4.2-2.2,6.7-5.3,6.7c-2.1,0-3.8-1.2-3.8-3.6c0-2.2,1.4-3.5,3.4-3.5
	c0.2,0,0.5,0,0.7,0.1c-0.2-2.3-2.6-4.4-5.8-4.8v14.6C609.5,101,608.4,102.1,606.5,102.1L606.5,102.1z M596.5,88.4l7,4.3v-7.6
	C601.1,85.7,598.8,86.8,596.5,88.4z M625,92.1c-1.3-0.7-2.1-1.8-2.1-3.6c0-1.7,0.6-2.9,1.8-3.7c6-4.1,12-5.6,12.1-5.6v-1.7h-15.8
	c-1.5,0-2.3-0.9-2.3-2.3V75c0-1.4,0.9-2.3,2.3-2.3h36.3c1.4,0,2.3,0.9,2.3,2.3V75c0,1.5-0.9,2.3-2.3,2.3h-14.8v6.7
	c0.1,4.6,2.5,6.9,5.5,6.9c2.2,0,3.5-1.3,3.5-3.6c0-0.8-0.3-1.6-0.8-2.1c-0.1,1.7-1.2,3-3.1,3c-2,0-3.5-1.3-3.5-3.5
	c0-2.7,1.9-4.7,5.3-4.7c4.1,0,7.2,2.8,7.2,7.9c0,4.4-2.4,8.1-8,8.1c-2.3,0-4.6-0.7-6.3-2.5l-0.2,0.1c0,0,0.2,1,0.2,3.8v1.7
	c0,1.8-0.9,2.8-2.8,2.8h-0.1c-1.8,0-2.8-1-2.8-2.8v-0.7L625,92.1z M627.6,97.3c2.1,0,3.4,1.5,3.4,3.4s-1.3,3.3-3.4,3.3
	s-3.3-1.5-3.3-3.3S625.5,97.3,627.6,97.3z M629.3,88.3l7.4,4.1v-7.8C634.7,85.3,631.8,86.8,629.3,88.3z M666,88.3h-0.6
	c0.3,0.6,0.5,1.2,0.5,1.9c0,2-1.4,3.3-3.5,3.3c-2.2,0-3.8-1.4-3.8-4c0-3.5,2.7-6.2,7.3-6.2c3.9,0,7.6,1.6,10,5.2l0.2-0.1
	c-0.3-1.7-0.7-4.4-0.7-8.3v-2.6h-18.2c-1.5,0-2.3-0.9-2.3-2.3V75c0-1.4,0.9-2.3,2.3-2.3h26.6c1.4,0,2.3,0.9,2.3,2.3V75
	c0,1.5-0.9,2.3-2.3,2.3h-2.4v21.8c0,1.8-1,2.9-2.7,2.9c-1.8,0-2.6-1-3.2-2.9C673.6,91.8,670.2,88.3,666,88.3z M696.6,99.1
	c0,1.9-1.1,3-3,3h-0.1c-1.9,0-3-1.1-3-3V76.3c0-1.9,1.1-3,3-3h0.1c1.9,0,3,1.1,3,3V99.1z"/>
</svg>
