<?xml version="1.0" encoding="utf-8"?>
<!-- Generator: Adobe Illustrator 25.0.1, SVG Export Plug-In . SVG Version: 6.00 Build 0)  -->
<svg version="1.1" id="Layer_1" xmlns="http://www.w3.org/2000/svg" xmlns:xlink="http://www.w3.org/1999/xlink" x="0px" y="0px"
	 viewBox="0 0 854.64 167.6" style="enable-background:new 0 0 854.64 167.6;" xml:space="preserve">
<style type="text/css">
	.st0{fill:url(#SVGID_1_);}
	.st1{fill:#197B30;}
	.st2{fill:#FFFFFF;}
</style>
<g>
	<linearGradient id="SVGID_1_" gradientUnits="userSpaceOnUse" x1="425.5529" y1="133.656" x2="425.5529" y2="48.9651">
		<stop  offset="1.690459e-07" style="stop-color:#3DB046"/>
		<stop  offset="1" style="stop-color:#92C64C"/>
	</linearGradient>
	<path class="st0" d="M798.19,44.57H52.91c-12.98,0-23.49,10.52-23.49,23.49v40.63c0,12.98,10.52,23.49,23.49,23.49h745.28
		c12.98,0,23.49-10.52,23.49-23.49V68.07C821.69,55.09,811.17,44.57,798.19,44.57z"/>
	<g>
		<path class="st1" d="M798.19,133.62H52.91c-13.75,0-24.93-11.18-24.93-24.93V68.07c0-13.75,11.19-24.93,24.93-24.93h745.28
			c13.75,0,24.93,11.18,24.93,24.93v40.63C823.12,122.44,811.94,133.62,798.19,133.62z M52.91,46.01
			c-12.16,0-22.06,9.89-22.06,22.06v40.63c0,12.16,9.89,22.06,22.06,22.06h745.28c12.16,0,22.06-9.89,22.06-22.06V68.07
			c0-12.16-9.89-22.06-22.06-22.06H52.91z"/>
	</g>
</g>
<g>
	<path class="st2" d="M91.16,87.3c0.04,0.35,0.04,0.74,0.04,1.04c0,2.29-1.04,4.19-3.54,4.19c-2.29,0-3.89-1.64-3.89-4.19
		c0-1.69,0.56-3.11,1.56-4.11c-2.51-2.9-4.32-3.85-4.32-3.85h-8.65c-1.47,0-2.33-0.87-2.33-2.33v-0.09c0-1.43,0.86-2.29,2.33-2.29
		h37.61h0.22h0.13c2.16,0,2.9,1.34,3.76,3.5l0.22-0.09c0,0-0.86-2.08-0.86-4.41v-0.69c0-1.64,0.95-2.64,2.68-2.64h0.13
		c1.69,0,2.68,0.99,2.68,2.64v1.69h2.38c1.43,0,2.38,0.86,2.38,2.29v0.09c0,1.47-0.95,2.33-2.38,2.33h-2.38v21.74
		c0,1.86-1.12,2.98-2.98,2.98h-0.09c-1.86,0-2.98-1.12-2.98-2.98V83.8c0-2.12-0.73-3.42-2.55-3.42h-3.59v21.87
		c0,1.82-0.99,2.85-2.85,2.85h-0.09c-1.82,0-2.9-1.08-2.9-2.9v-0.65l-4.54-3.93c-1.86,2.64-5.01,4.06-8.99,4.06
		c-9.6,0-13.27-7.91-13.27-15.48c0-1.82,0.82-3.07,2.68-3.07c1.43,0,2.77,0.65,2.77,2.64c0,7.48,3.07,10.72,7.78,10.72
		c3.54,0,5.45-2.33,5.45-5.58C92.76,89.12,92.11,87.91,91.16,87.3z M98.21,92.66l2.68,2.42v-14.7H88.4c0.43,0.6,0.82,1.25,1.17,1.9
		c0.22-0.04,0.43-0.04,0.65-0.04c4.97,0,8.08,3.8,8.08,8.73C98.29,91.58,98.25,92.1,98.21,92.66z"/>
	<path class="st2" d="M131.89,89.64c-1.12-1.95-2.12-2.94-4.15-2.94c-0.65,0-0.86,0.04-1.3,0.04c-1.82,0-3.37-1.73-3.37-3.85
		c0-1.47,0.6-2.51,0.99-3.07c2.46-3.33,6.01-4.84,10.03-4.84c3.98,0,7.39,1.9,9.94,5.06l0.26-0.22v-5.49c0-1.86,1.12-2.98,2.98-2.98
		h0.09c1.86,0,2.98,1.12,2.98,2.98v1.34h2.38c1.43,0,2.29,0.86,2.29,2.29v0.09c0,1.47-0.86,2.33-2.29,2.33h-2.38v21.74
		c0,1.86-1.12,2.98-2.98,2.98h-0.09c-1.86,0-2.98-1.12-2.98-2.98V86.87l-11.28,8.77c-0.56,0.43-1.21,0.69-1.82,0.69
		c-1.34,0-2.72-1.34-2.72-2.77c0-0.82,0.48-1.64,1.3-2.29L131.89,89.64z M135.86,86.48l4.19-3.29c-2.16-2.51-4.02-3.07-5.71-3.07
		c-2.16,0-3.85,0.82-5.01,2.12C132.36,82.33,134.18,83.8,135.86,86.48z"/>
	<path class="st2" d="M162.45,75.67h2.38c1.43,0,2.29,0.86,2.29,2.29v0.09c0,1.47-0.86,2.33-2.29,2.33h-2.38v21.74
		c0,1.86-1.12,2.98-2.98,2.98h-0.09c-1.86,0-2.98-1.12-2.98-2.98V80.39h-3.67c-1.47,0-2.33-0.87-2.33-2.33v-0.09
		c0-1.43,0.86-2.29,2.33-2.29h3.67v-3.5c0-7.05,4.76-9.64,10.94-9.64c4.19,0,8.21,1.3,12.71,3.5c1.51,0.73,2.38,1.77,1.6,3.63
		c-0.65,1.51-2.07,1.77-3.63,1.04c-4.8-2.29-7.39-2.98-10.03-2.98c-3.42,0-5.53,1.3-5.53,4.45V75.67z"/>
	<path class="st2" d="M173.56,91.28H173c0.35,0.56,0.52,1.17,0.52,1.86c0,1.99-1.38,3.29-3.46,3.29c-2.16,0-3.85-1.43-3.85-4.02
		c0-3.46,2.68-6.23,7.35-6.23c3.93,0,7.56,1.56,9.99,5.23l0.17-0.09c-0.3-1.69-0.69-4.37-0.69-8.34v-2.59h-18.2
		c-1.47,0-2.33-0.87-2.33-2.33v-0.09c0-1.43,0.86-2.29,2.33-2.29h26.63c1.43,0,2.29,0.86,2.29,2.29v0.09c0,1.47-0.86,2.33-2.29,2.33
		h-2.38v21.79c0,1.82-0.95,2.94-2.72,2.94c-1.77,0-2.64-0.95-3.16-2.9C181.21,94.78,177.76,91.28,173.56,91.28z"/>
	<path class="st2" d="M235.21,78.05c0,1.47-0.86,2.33-2.29,2.33h-2.38v21.92c0,1.77-0.99,2.81-2.77,2.81h-0.09
		c-1.77,0-2.77-1.04-2.77-2.81v-8.78c0-1.69-0.48-2.16-1.34-2.16c-2.9,0-2.77,8.47-10.2,8.47c-2.55,0-4.93-0.99-6.31-2.98
		c-0.43-0.61-0.6-1.08-0.6-1.77c0-1.6,1.34-2.68,2.77-2.68c0.91,0,1.43,0.47,2.16,1.21c0.56,0.56,0.99,0.95,1.82,0.95
		c1.64,0,2.55-2.16,3.8-4.32c-1.34-2.77-3.42-4.75-5.14-5.79c-2.12-1.3-2.72-2.03-2.72-4.06h-4.28c-1.47,0-2.33-0.87-2.33-2.33
		v-0.09c0-1.43,0.86-2.29,2.33-2.29h28.05c1.43,0,2.29,0.86,2.29,2.29V78.05z M224.92,86.48v-6.09h-9.68
		c2.12,1.43,3.8,3.24,5.4,6.01c0.6-0.26,1.3-0.43,2.07-0.43C224.06,85.96,224.88,86.44,224.92,86.48z"/>
	<path class="st2" d="M250.77,105.11c-1.86,0-2.98-1.12-2.98-2.98v-0.39l-11.24-6.87c-1.25-0.78-1.9-1.95-1.9-3.46
		c0-1.6,0.69-2.77,1.77-3.59c3.93-2.9,7.69-4.37,11.37-5.06v-2.38h-14.87c-1.47,0-2.33-0.87-2.33-2.33v-0.09
		c0-1.43,0.86-2.29,2.33-2.29h32.38c1.43,0,2.29,0.86,2.29,2.29v0.09c0,1.47-0.86,2.33-2.29,2.33h-11.46v1.99
		c5.92,0.39,10.85,3.93,10.85,10.2c0,4.24-2.25,6.7-5.27,6.7c-2.12,0-3.85-1.17-3.85-3.59c0-2.16,1.38-3.46,3.42-3.46
		c0.22,0,0.48,0.04,0.69,0.09c-0.17-2.33-2.59-4.37-5.83-4.75v14.57c0,1.86-1.12,2.98-2.98,2.98H250.77z M240.83,91.36l6.96,4.32
		v-7.57C245.46,88.73,243.12,89.77,240.83,91.36z"/>
	<path class="st2" d="M299.75,78.05c0,1.47-0.87,2.33-2.29,2.33h-2.38v21.83c0,1.82-1.08,2.9-2.85,2.9h-0.09
		c-1.82,0-2.9-1.08-2.9-2.9V91.88c-0.09-2.9-1.08-3.98-2.29-3.98c-1.3,0-1.64,0.91-2.08,2.29c-0.52,1.77-1.12,2.77-2.94,2.77
		c-1.95,0-2.59-1.25-3.11-2.81c-0.56-1.69-1.38-2.25-2.9-2.25c-1.9,0-3.07,1.43-3.07,4.15c0,1.56,0.39,2.64,1.08,3.29
		c0.56-1.12,1.64-1.86,3.07-1.86c1.99,0,3.54,1.43,3.54,3.54c0,1.99-1.56,3.98-5.01,3.98c-4.28,0-8.3-3.16-8.3-9.03
		c0-6.48,4.19-8.95,8.39-8.95c2.77,0,4.93,1.21,6.09,2.77c1.21-2.03,3.03-2.77,4.67-2.77c0.95,0,2.07,0.39,2.85,1.08v-3.72H265.3
		c-1.47,0-2.33-0.87-2.33-2.33v-0.09c0-1.43,0.86-2.29,2.33-2.29h32.16c1.43,0,2.29,0.86,2.29,2.29V78.05z"/>
	<path class="st2" d="M313.24,83.28c0-1.47,0.69-2.72,1.38-3.63c2.21-2.81,5.14-4.67,9.47-4.67c4.37,0,7.82,1.9,10.33,5.06l0.3-0.22
		v-5.49c0-1.86,0.99-2.98,2.85-2.98h0.09c1.86,0,2.85,1.12,2.85,2.98v1.34h2.38c1.43,0,2.29,0.86,2.29,2.29v0.09
		c0,1.47-0.86,2.33-2.29,2.33h-2.38v23.47c0,1.77-0.56,2.81-2.46,2.81c-4.11,0-1.9-3.89-6.48-3.89c-3.85,0-5.96,0.74-9.99,0.74
		c-4.24,0-7.87-1.82-8.69-6.83c-0.35-2.16,1.08-3.42,2.72-3.42c1.3,0,2.33,0.52,2.81,2.12c0.52,1.69,1.51,2.81,3.89,2.81
		c3.59,0,4.88-0.69,8.91-0.69c1.17,0,2.42,0.22,3.5,1.25V86.87l-10.59,8.04c-0.56,0.43-1.21,0.69-1.82,0.69
		c-1.34,0-2.72-1.34-2.72-2.77c0-0.82,0.48-1.64,1.3-2.29l1.34-1.04c-1.21-1.82-2.38-2.81-4.37-2.81c-0.65,0-1.04,0.04-1.69,0.04
		C314.5,86.74,313.24,85.14,313.24,83.28z M326.26,86.39l4.24-3.29c-2.16-2.46-4.06-2.98-5.92-2.98c-2.08,0-3.72,0.82-4.88,2.16
		C322.62,82.42,324.57,83.84,326.26,86.39z"/>
	<path class="st2" d="M358.81,100.92c0,2.16-1.56,3.76-4.19,3.76c-4.88,0-9.34-4.58-9.34-12.92c0-5.01,1.69-9.08,3.63-11.37h-6.01
		c-1.47,0-2.33-0.87-2.33-2.33v-0.09c0-1.43,0.86-2.29,2.33-2.29h15.99c1.43,0,2.29,0.86,2.29,2.29v0.09c0,1.47-0.86,2.33-2.29,2.33
		h-1.25c-3.54,0.26-6.74,5.19-6.74,11.37c0,3.46,0.61,5.66,1.86,6.74c0.6-0.73,1.56-1.17,2.59-1.17
		C357.64,97.33,358.81,99.15,358.81,100.92z"/>
	<path class="st2" d="M356.74,80.39c-1.47,0-2.33-0.87-2.33-2.33v-0.09c0-1.43,0.86-2.29,2.33-2.29h2.08c3.85,0,5.58,1.51,7.69,3.98
		c1.82-2.42,3.63-3.98,7.44-3.98h2.98v-1.34c0-1.86,0.95-2.98,2.81-2.98h0.09c1.86,0,2.77,1.12,2.77,2.98v1.34h2.38
		c1.43,0,2.29,0.86,2.29,2.29v0.09c0,1.47-0.87,2.33-2.29,2.33h-2.38v21.22c0,2.16-0.65,3.59-2.72,3.59c-1.82,0-2.85-1.04-4.58-2.77
		c-1.73-1.73-3.98-3.72-6.74-3.72c-0.13,0-0.26,0.04-0.39,0.04c0.09,0.3,0.13,0.6,0.13,0.95c0,1.99-1.38,3.24-3.42,3.24
		c-2.03,0-3.8-1.38-3.8-3.98c0-3.76,3.16-5.58,6.53-5.58c3.59,0,7.26,1.47,9.55,3.8l0.22-0.09c-0.22-1.38-0.43-3.59-0.43-7v-9.73
		h-2.98c-1.25,0-2.25,0.6-3.07,1.64c3.07,2.64,4.28,5.19,4.28,7.05c0,1.99-1.25,3.11-2.81,3.11c-1.86,0-4.15-1.64-5.58-6.09h-0.17
		c-1.43,4.45-3.72,6.09-5.58,6.09c-1.56,0-2.81-0.99-2.81-2.98c0-1.86,1.17-4.54,4.28-7.18c-0.86-1.04-1.99-1.64-3.67-1.64H356.74z"
		/>
	<path class="st2" d="M408.79,75.67c1.43,0,2.29,0.86,2.29,2.29v0.09c0,1.47-0.86,2.33-2.29,2.33h-2.38v21.92
		c0,1.77-0.87,2.81-2.77,2.81h-0.09c-1.77,0-2.81-1.04-2.81-2.81v-0.69l-12.1-6.74c-1.3-0.74-1.73-1.82-1.73-3.33
		c0-1.6,0.43-2.81,1.56-3.63c5.92-4.19,12.23-5.79,12.28-5.79v-1.73h-15.78c-1.47,0-2.33-0.87-2.33-2.33v-0.09
		c0-1.43,0.86-2.29,2.33-2.29H408.79z M391.58,100.31c2.07,0,3.37,1.51,3.37,3.37c0,1.86-1.3,3.33-3.37,3.33
		c-2.08,0-3.33-1.47-3.33-3.33C388.25,101.83,389.51,100.31,391.58,100.31z M393.31,91.32l7.44,4.11V87.6
		C398.71,88.3,395.82,89.77,393.31,91.32z"/>
	<path class="st2" d="M452.53,78.05c0,1.47-0.86,2.33-2.29,2.33h-2.38v21.92c0,1.77-0.99,2.81-2.77,2.81h-0.09
		c-1.77,0-2.77-1.04-2.77-2.81v-8.78c0-1.69-0.48-2.16-1.34-2.16c-2.9,0-2.77,8.47-10.2,8.47c-2.55,0-4.93-0.99-6.31-2.98
		c-0.43-0.61-0.61-1.08-0.61-1.77c0-1.6,1.34-2.68,2.77-2.68c0.91,0,1.43,0.47,2.16,1.21c0.56,0.56,0.99,0.95,1.82,0.95
		c1.64,0,2.55-2.16,3.8-4.32c-1.34-2.77-3.42-4.75-5.14-5.79c-2.12-1.3-2.72-2.03-2.72-4.06h-4.28c-1.47,0-2.33-0.87-2.33-2.33
		v-0.09c0-1.43,0.86-2.29,2.33-2.29h28.05c1.43,0,2.29,0.86,2.29,2.29V78.05z M442.25,86.48v-6.09h-9.68
		c2.12,1.43,3.8,3.24,5.4,6.01c0.61-0.26,1.3-0.43,2.08-0.43C441.38,85.96,442.2,86.44,442.25,86.48z"/>
	<path class="st2" d="M447.91,77.96c0-1.43,0.86-2.29,2.33-2.29h3.67v-2.29c0-7.05,4.62-9.6,10.33-9.6c0.74,0,1.43,0.04,2.16,0.13
		c0.61-3.2,2.81-5.23,6.31-5.23c2.21,0,2.98,0.87,2.98,2.38c0,1.17-0.26,1.73-0.91,2.08c-0.43,0.22-0.99,0.3-1.77,0.39
		c-0.78,0.09-1.38,0.48-1.6,1.34c2.16,0.65,4.28,1.47,6.22,2.42c1.51,0.74,2.55,1.69,1.6,3.63c-0.78,1.64-1.99,1.56-3.76,0.73
		l-3.11-1.34c0.78,1.73,1.82,3.37,2.59,4.41l0.69,0.95h11.07c1.43,0,2.29,0.86,2.29,2.29v0.09c0,1.47-0.86,2.33-2.29,2.33h-7.52
		l0.52,0.69c4.45,5.97,6.05,9.73,6.05,13.49c0,6.09-3.37,10.38-10.46,10.38c-6.7,0-11.28-4.54-11.28-10.85
		c0-2.03,0.78-2.9,2.33-3.03c5.88-0.69,7.74-3.54,7.74-6.87c0-1.34-0.43-2.81-1.17-3.8h-12.97v21.74c0,1.86-1.12,2.98-2.98,2.98
		h-0.09c-1.86,0-2.98-1.12-2.98-2.98V80.39h-3.67c-1.47,0-2.33-0.87-2.33-2.33V77.96z M459.97,75.67h9.81
		c-1.47-2.33-2.55-4.63-3.11-6.83c-0.52-0.04-1.08-0.09-1.6-0.09c-3.29,0-5.1,1.25-5.1,4.63V75.67z M477.91,87.04h-0.17
		c0,4.67-2.59,7.74-7.91,8.65c0.39,2.59,2.38,4.11,5.36,4.11c3.42,0,5.23-2.25,5.23-5.49C480.42,91.45,479.38,89.51,477.91,87.04z"
		/>
	<path class="st2" d="M504.59,105.11c-1.86,0-2.98-1.12-2.98-2.98v-0.39l-11.24-6.87c-1.25-0.78-1.9-1.95-1.9-3.46
		c0-1.6,0.69-2.77,1.77-3.59c3.93-2.9,7.69-4.37,11.37-5.06v-2.38h-14.87c-1.47,0-2.33-0.87-2.33-2.33v-0.09
		c0-1.43,0.86-2.29,2.33-2.29h32.38c1.43,0,2.29,0.86,2.29,2.29v0.09c0,1.47-0.86,2.33-2.29,2.33h-11.46v1.99
		c5.92,0.39,10.85,3.93,10.85,10.2c0,4.24-2.25,6.7-5.27,6.7c-2.12,0-3.85-1.17-3.85-3.59c0-2.16,1.38-3.46,3.42-3.46
		c0.22,0,0.48,0.04,0.69,0.09c-0.17-2.33-2.59-4.37-5.83-4.75v14.57c0,1.86-1.12,2.98-2.98,2.98H504.59z M494.65,91.36l6.96,4.32
		v-7.57C499.27,88.73,496.94,89.77,494.65,91.36z"/>
	<path class="st2" d="M536.54,62.75c1.64,0,2.77,0.69,2.9,2.46c0.09,1.08,0.73,1.64,2.81,1.64c3.67,0,6.44-0.48,10.46-0.48
		c5.19,0,7.82,2.81,7.82,7.09c0,0.52-0.09,1.51-0.17,2.21h1.12c1.43,0,2.29,0.86,2.29,2.29v0.09c0,1.47-0.86,2.33-2.29,2.33h-12.23
		v6.14c0,1.08,0.61,1.56,1.51,1.56c0.65,0,1.34-0.3,2.03-0.65c1.25-0.69,2.51-1.64,3.76-1.64c1.77,0,2.9,1.34,3.59,3.11
		c0.56,1.43,0.82,3.11,0.82,4.62c0,5.53-3.24,11.37-12.02,11.37c-10.55,0-14.78-9.29-14.78-16.56c0-1.82,1.34-2.59,2.68-2.59
		c1.6,0,2.59,0.91,2.68,2.59c0.3,5.75,2.9,11.28,9.47,11.28c5.06,0,6.57-3.54,6.57-6.27c0-0.91-0.09-1.38-0.26-1.73
		c-0.04,0.04-2.25,2.2-5.71,2.2c-3.67,0-6.18-2.07-6.18-5.92v-7.52h-10.89c-1.47,0-2.33-0.87-2.33-2.33v-0.09
		c0-1.43,0.86-2.29,2.33-2.29h22.39c0.09-0.61,0.13-1.3,0.13-1.69c0-1.95-1.34-2.85-3.85-2.85c-3.33,0-5.1,0.48-9.9,0.48
		c-5.06,0-7.65-2.16-7.65-5.88C533.64,63.83,534.59,62.75,536.54,62.75z"/>
	<path class="st2" d="M591.83,78.05c0,1.47-0.86,2.33-2.29,2.33h-28.05c-1.47,0-2.33-0.87-2.33-2.33v-0.09
		c0-1.43,0.86-2.29,2.33-2.29h28.05c1.43,0,2.29,0.86,2.29,2.29V78.05z M563.25,93.22c-0.13-1.95,1.08-3.03,2.85-3.03
		c1.6,0,2.46,0.91,2.64,2.55c0.65,6.74,4.11,10.85,9.9,10.85c3.8,0,4.93-2.12,4.93-3.59c0-0.82-0.22-1.38-0.56-1.77
		c-0.73,0.74-1.82,1.08-2.85,1.08c-2.21,0-3.85-1.3-3.85-3.46c0-1.99,1.34-3.63,4.02-3.63c0.61,0,1.12,0.13,1.51,0.26
		c0.74-0.82,0.99-1.82,0.99-2.77c0-1.99-1.51-3.03-3.46-3.03c-1.08,0-1.99,0.26-2.59,0.82c0.56,0.52,0.86,1.3,0.86,2.29
		c0,1.77-1.3,3.07-3.24,3.07c-2.25,0-3.76-1.51-3.76-4.06c0-3.63,3.03-6.96,8.47-6.96c5.62,0,9.12,3.37,9.12,7.82
		c0,1.95-0.65,3.63-1.9,5.14c1.56,1.21,2.42,2.94,2.42,5.36c0,4.37-2.72,8.56-10.29,8.56C569.48,108.74,563.9,102.17,563.25,93.22z
		 M576.44,91.06h0.04H576.44z"/>
	<path class="st2" d="M613.36,75.67c1.43,0,2.29,0.86,2.29,2.29v0.09c0,1.47-0.86,2.33-2.29,2.33h-2.38v21.92
		c0,1.77-0.87,2.81-2.77,2.81h-0.09c-1.77,0-2.81-1.04-2.81-2.81v-0.69l-12.1-6.74c-1.3-0.74-1.73-1.82-1.73-3.33
		c0-1.6,0.43-2.81,1.56-3.63c5.92-4.19,12.23-5.79,12.28-5.79v-1.73h-15.78c-1.47,0-2.33-0.87-2.33-2.33v-0.09
		c0-1.43,0.86-2.29,2.33-2.29H613.36z M596.15,100.31c2.07,0,3.37,1.51,3.37,3.37c0,1.86-1.3,3.33-3.37,3.33
		c-2.08,0-3.33-1.47-3.33-3.33C592.82,101.83,594.08,100.31,596.15,100.31z M597.88,91.32l7.44,4.11V87.6
		C603.29,88.3,600.39,89.77,597.88,91.32z"/>
	<path class="st2" d="M636.49,75.67h2.38c1.43,0,2.29,0.86,2.29,2.29v0.09c0,1.47-0.86,2.33-2.29,2.33h-2.38v21.74
		c0,1.86-1.12,2.98-2.98,2.98h-0.09c-1.86,0-2.98-1.12-2.98-2.98V80.39h-3.67c-1.47,0-2.33-0.87-2.33-2.33v-0.09
		c0-1.43,0.86-2.29,2.33-2.29h3.67v-3.5c0-7.05,4.75-9.64,10.94-9.64c4.19,0,8.21,1.3,12.71,3.5c1.51,0.73,2.38,1.77,1.6,3.63
		c-0.65,1.51-2.08,1.77-3.63,1.04c-4.8-2.29-7.39-2.98-10.03-2.98c-3.42,0-5.53,1.3-5.53,4.45V75.67z"/>
	<path class="st2" d="M660.96,102.3c0,1.77-1.04,2.81-2.81,2.81h-0.09c-1.77,0-2.81-1.04-2.81-2.81v-5.23c0-4.02,0.22-5.75,0.6-6.83
		c-1.51,0.91-3.42,2.29-6.14,5.01c-1.25,1.25-2.33,2.25-4.37,2.25c-1.73,0-3.24-0.95-3.24-3.33V80.39h-3.24
		c-1.47,0-2.33-0.87-2.33-2.33v-0.09c0-1.43,0.86-2.29,2.33-2.29h24.51c1.43,0,2.29,0.86,2.29,2.29v0.09c0,1.47-0.87,2.33-2.29,2.33
		h-15.22v2.12c0,3.16-0.17,5.23-0.35,6.44l0.13,0.04c2.16-2.21,6.92-5.4,9.38-5.4c1.25,0,2.03,0.3,2.9,1.04
		c1.34,1.17,1.51,2.29,1.51,3.33c0,1.6-0.78,2.9-0.78,9.29V102.3z"/>
	<path class="st2" d="M679.29,100.92c0,2.16-1.56,3.76-4.19,3.76c-4.88,0-9.34-4.58-9.34-12.92c0-5.01,1.69-9.08,3.63-11.37h-6.01
		c-1.47,0-2.33-0.87-2.33-2.33v-0.09c0-1.43,0.86-2.29,2.33-2.29h15.99c1.43,0,2.29,0.86,2.29,2.29v0.09c0,1.47-0.86,2.33-2.29,2.33
		h-1.25c-3.54,0.26-6.74,5.19-6.74,11.37c0,3.46,0.61,5.66,1.86,6.74c0.6-0.73,1.56-1.17,2.59-1.17
		C678.12,97.33,679.29,99.15,679.29,100.92z"/>
	<path class="st2" d="M704.06,78.05c0,1.47-0.86,2.33-2.29,2.33h-2.38v21.96c0,1.73-1.12,2.77-2.85,2.77h-0.09
		c-1.73,0-2.85-1.04-2.85-2.77v-0.69l-11.89-5.45c-1.25-0.56-1.9-1.56-1.9-3.11c0-1.56,0.56-2.46,1.64-3.33l3.37-2.59l-3.63-2.46
		c-1.38-0.95-1.99-2.29-1.99-3.98v-0.35h-1.99c-1.47,0-2.33-0.87-2.33-2.33v-0.09c0-1.43,0.86-2.29,2.33-2.29h24.55
		c1.43,0,2.29,0.86,2.29,2.29V78.05z M684.69,101c2.08,0,3.37,1.51,3.37,3.37c0,1.86-1.3,3.33-3.37,3.33s-3.33-1.47-3.33-3.33
		C681.36,102.52,682.62,101,684.69,101z M693.6,95.86V80.39h-9.25l4.8,3.46c1.08,0.78,1.73,1.64,1.73,3.16
		c0,1.51-0.61,2.55-1.64,3.37l-2.72,2.16L693.6,95.86z"/>
	<path class="st2" d="M717.68,100.92c0,2.16-1.56,3.76-4.19,3.76c-4.88,0-9.34-4.58-9.34-12.92c0-5.01,1.69-9.08,3.63-11.37h-6.01
		c-1.47,0-2.33-0.87-2.33-2.33v-0.09c0-1.43,0.86-2.29,2.33-2.29h15.99c1.43,0,2.29,0.86,2.29,2.29v0.09c0,1.47-0.86,2.33-2.29,2.33
		h-1.25c-3.54,0.26-6.74,5.19-6.74,11.37c0,3.46,0.61,5.66,1.86,6.74c0.6-0.73,1.56-1.17,2.59-1.17
		C716.51,97.33,717.68,99.15,717.68,100.92z"/>
	<path class="st2" d="M719.97,80.39h-3.5c-1.47,0-2.33-0.87-2.33-2.33v-0.09c0-1.43,0.86-2.29,2.33-2.29h26.58
		c1.43,0,2.29,0.86,2.29,2.29v0.09c0,1.47-0.86,2.33-2.29,2.33h-16.95c0.74,0.95,2.08,1.56,3.98,2.03c1.3,0.35,2.29,0.65,2.98,0.99
		c0.3,0,0.56-0.04,0.78-0.04c5.53,0,8.56,3.07,8.56,8.3c0,5.71-3.59,9.68-10.72,10.07v0.17c0,0,2.59,0.56,5.32,1.73l2.29,0.99
		c1.25,0.52,2.16,0.99,2.16,2.33s-0.78,2.68-2.33,2.68c-0.73,0-1.51-0.26-2.08-0.48l-15.91-6.61c-0.99-0.39-1.69-1.04-1.69-2.29
		c0-1.6,1.04-2.81,2.55-2.81c1.86,0,2.46,0.39,5.27,0.39c4.93,0,9.55-1.56,9.55-6.18c0-1.69-0.82-2.72-2.08-3.07
		c-0.78,3.11-3.5,6.87-8.95,6.87c-3.24,0-5.83-1.3-5.83-5.23V80.39z M729.7,87.56c0-1.17-1.43-1.21-2.68-1.69
		c-0.91-0.35-1.38-0.65-1.64-0.91v4.75c0,0.56,0.3,0.91,0.99,0.91C727.92,90.63,729.7,88.86,729.7,87.56z"/>
	<path class="st2" d="M751.79,91.28h-0.56c0.35,0.56,0.52,1.17,0.52,1.86c0,1.99-1.38,3.29-3.46,3.29c-2.16,0-3.85-1.43-3.85-4.02
		c0-3.46,2.68-6.23,7.35-6.23c3.93,0,7.56,1.56,9.99,5.23l0.17-0.09c-0.3-1.69-0.69-4.37-0.69-8.34v-2.59h-18.2
		c-1.47,0-2.33-0.87-2.33-2.33v-0.09c0-1.43,0.86-2.29,2.33-2.29h26.63c1.43,0,2.29,0.86,2.29,2.29v0.09c0,1.47-0.87,2.33-2.29,2.33
		h-2.38v21.79c0,1.82-0.95,2.94-2.72,2.94s-2.64-0.95-3.16-2.9C759.44,94.78,755.98,91.28,751.79,91.28z"/>
	<path class="st2" d="M782.44,102.13c0,1.86-1.12,2.98-2.98,2.98h-0.09c-1.86,0-2.98-1.12-2.98-2.98V79.26
		c0-1.86,1.12-2.98,2.98-2.98h0.09c1.86,0,2.98,1.12,2.98,2.98V102.13z"/>
</g>
</svg>
